# xmcd
#
# Track frame offsets:
#	150
#	16676
#	31552
#	45120
#	62259
#	79500
#
# Disc length: 1251 seconds
#
# Revision: 1
# Processed by: cddbd v1.5.2PL0 Copyright (c) Steve Scherf et al.
# Submitted via: audiograbber 1.83.01
#
DISCID=2704e106
DTITLE=Aaron Vance - Country D.N.A.
DYEAR=2013
DGENRE=Country
TTITLE0=Country D.N.A.
TTITLE1=In the Same Boat Now
TTITLE2=Walking Down Broadway
TTITLE3=This Man's Love
TTITLE4=A Little Mo' Better
TTITLE5=Never Been to Mexico
EXTD=
EXTT0=
EXTT1=
EXTT2=
EXTT3=
EXTT4=
EXTT5=
PLAYORDER=
